<?xml version="1.0" encoding="UTF-8" standalone="no"?><!DOCTYPE svg PUBLIC "-//W3C//DTD SVG 1.1//EN" "http://www.w3.org/Graphics/SVG/1.1/DTD/svg11.dtd"><svg width="100%" height="100%" viewBox="0 0 5517 2084" version="1.1" xmlns="http://www.w3.org/2000/svg" xmlns:xlink="http://www.w3.org/1999/xlink" xml:space="preserve" style="fill-rule:evenodd;clip-rule:evenodd;stroke-linejoin:round;stroke-miterlimit:2;"><path id="ngaru" d="M4280.8,2011.38c42.805,20.688 148.762,10.6 166.719,6.071c133.433,-33.652 289.139,-296.25 361.041,-608.897c26.182,-113.846 31.122,-122.149 90.795,-152.628c141.425,-72.233 305.103,-59.082 412.603,33.152c160.202,137.452 143.272,386.488 -29.703,436.903c-78.092,22.76 -169.507,-5.892 -177.868,-55.75c-4.925,-29.365 1.532,-31.948 58.079,-23.239c153.96,23.711 226.862,-83.537 151.703,-223.176c-54.946,-102.086 -211.455,-142.749 -330.183,-85.787c-127.966,61.395 -192.019,184.163 -182.802,350.371c7.662,138.178 84.016,231.6 188.578,295.183c28.172,17.13 163.941,55.745 254.992,53.807c176.058,-3.747 272.797,-55.448 272.797,-55.448l-0.1,54.326l-0.331,47.063l-5515.35,-2.322l-0.887,-99.267c0.357,0.221 66.816,-40.967 66.816,-40.967c-0,-0 140.261,-90.668 161.283,-107.547c62.034,-49.808 276.196,-175.675 283.886,-166.844c3.893,4.47 -1.593,35.665 -12.192,69.322c-43.266,137.388 43.375,272.415 174.89,272.559c126.541,0.138 248.473,-110.575 337.673,-306.605c23.572,-51.801 47.082,-94.202 52.245,-94.225c5.162,-0.023 13.148,32.159 17.745,71.516c14.143,121.073 71.528,226.988 158.991,293.443c39.973,30.372 147.382,61.389 225.371,63.031c82.264,1.732 229.932,-30.215 268.213,-52.642c51.997,-30.463 195.662,-116.521 319.254,-191.239c123.593,-74.719 228.328,-131.703 232.746,-126.631c4.417,5.073 0.646,25.067 -8.38,44.434c-23.449,50.31 -20.266,135.268 7.367,196.626c25.496,56.614 123.915,118.821 188.76,119.309c135.025,1.016 276.259,-132.004 375.504,-353.665l56.071,-125.236l9.41,104.593c5.175,57.525 20.35,128.714 33.721,158.198c33.952,74.862 139.768,165.61 205.722,192.965c51.233,21.249 306.462,52.676 414.445,15.277c109.005,-37.753 164.65,-79.695 310.941,-163.106l305.168,-173.999l-20.281,67.593c-16.372,54.568 -16.669,80.17 -1.541,132.867c17.163,59.783 68.954,107.831 116.088,130.611Zm794.386,-78.616c-68.932,-28.705 -154.209,-110.406 -172.939,-165.685c-39.002,-115.113 -2.389,-259.991 77.727,-307.563c62.968,-37.389 185.952,-34.382 228.951,5.598c52.379,48.702 25.471,73.378 -74.453,68.277c-116.198,-5.931 -169.182,31.565 -169.182,119.728c-0,90.17 75.876,173.521 173.216,190.282c189.825,32.686 356.849,-124.537 357.797,-336.802c0.658,-147.316 -96.516,-306.167 -220.57,-360.567c-38.163,-16.735 -65.174,-35.265 -60.025,-41.177c7.787,-8.941 301.271,-18.322 301.271,-18.322l0.293,746.577c0,0 -139.552,81.433 -161.003,90.05c-91.649,36.817 -206.227,40.777 -281.083,9.604Zm-805.663,-21.945c-28.026,-22.54 -33.676,-41.197 -29.945,-98.879c5.694,-88.021 38.574,-107.558 45.317,-26.926c6.401,76.547 59.437,89.219 97.108,23.202c31.899,-55.903 11.921,-121.009 -46.515,-151.581c-20.997,-10.986 -38.034,-24.598 -37.859,-30.25c0.424,-13.701 357.843,-228.176 380.252,-228.176c43.148,0 -48.062,284.634 -131.427,410.134c-75.65,113.888 -203.787,161.304 -276.931,102.476Zm-1060.11,3.906c-129.086,-48.679 -202.582,-148.545 -202.459,-275.102c0.114,-117.098 93.565,-223.982 195.833,-223.982c82.677,0 154.944,59.194 129.647,106.195c-4.704,8.738 -44.585,11.025 -88.624,5.082c-74.548,-10.061 -82.34,-7.496 -112.948,37.186c-87.815,128.188 8.554,270.352 182.703,269.523c122.569,-0.583 198.31,-48.162 253.917,-159.506c60.329,-120.799 63.32,-239.34 9.135,-362.121c-39.345,-89.154 -81.641,-132.321 -182.596,-186.351l-60.725,-32.5l220.129,-5.458c242.821,-6.021 474.871,9.608 463.25,31.2c-4.111,7.637 -33.168,19.281 -64.572,25.876c-149.547,31.406 -264.685,169.885 -266.667,320.727c-1.453,110.578 30.291,165.164 118.555,203.871c38.309,16.799 64.211,36.453 57.561,43.676c-6.65,7.223 -89.142,57.764 -183.316,112.314c-155.604,90.132 -181.918,99.819 -288.445,106.184c-74.151,4.43 -140.426,-1.747 -180.378,-16.814Zm-1834.51,8.599c-86.278,-26.055 -143.143,-72.276 -181.585,-147.597c-46.955,-92.001 -48.671,-157.761 -6.203,-237.753c45.759,-86.192 71.73,-103.718 154.628,-104.346c81.636,-0.619 131.839,22.636 131.839,61.071c0,19.575 -21.167,25.534 -90.698,25.534c-85.797,0 -91.995,2.88 -114.697,53.29c-22.176,49.24 -21.917,58.095 3.405,116.541c43.674,100.802 97.45,135.484 207.344,133.724c113.42,-1.817 166.513,-29.174 228.577,-117.778c42.639,-60.872 46.924,-78.381 46.924,-191.753c-0,-104.479 -6.735,-137.919 -41.425,-205.676c-36.305,-70.914 -159.181,-189.284 -196.489,-189.284c-6.918,-0 -12.578,-7.845 -12.578,-17.432c-0,-21.994 601.942,-23.971 613.759,-2.015c4.564,8.479 -20.996,23.887 -56.8,34.239c-136.84,39.565 -238.151,166.885 -238.151,299.29c-0,159.277 157.459,269.731 240.255,168.533c36.601,-44.737 44.968,-148.133 14.791,-182.784c-27.525,-31.606 -100.067,-25.602 -115.829,9.587c-19.919,44.471 -5.275,74.086 36.633,74.086c41.06,0 49.514,30.307 12.948,46.419c-37.935,16.715 -95.98,-23.716 -107.102,-74.601c-13.719,-62.765 25.697,-143.266 97.161,-198.434c52.914,-40.848 68.351,-43.527 246.22,-42.739c185.747,0.822 364.352,38.825 364.352,77.525c-0,15.96 -183.427,129.213 -690.751,426.489c-282.033,165.263 -329.315,187.55 -409.896,193.215c-50.098,3.521 -111.582,0.213 -136.632,-7.351Zm1014.97,-33.048c-42.064,-38.932 -56.976,-97.938 -36.082,-142.768c26.13,-56.062 58.267,-44.229 55.68,20.5c-1.657,41.474 4.955,57.715 25.459,62.54c37.097,8.73 86.163,-44.714 86.163,-93.851c-0,-49.242 -66.71,-111.871 -119.161,-111.871c-33.971,-0 -36.214,-3.21 -16.929,-24.229c32.094,-34.98 444.244,-270.96 457.194,-261.77c13.225,9.385 -46.196,214.652 -91.945,317.624c-40.904,92.065 -129.358,206.354 -185.516,239.699c-56.592,33.604 -135.058,30.968 -174.863,-5.874Zm-1795.04,-1.933c-35.241,-40.465 -42.588,-122.519 -13.919,-155.439c29.592,-33.979 39.532,-24.418 37.155,35.736c-1.946,49.27 2.632,56.654 35.133,56.654c24.571,-0 45.061,-15.732 59.822,-45.93c20.168,-41.258 19.772,-50.625 -3.902,-92.112c-14.59,-25.569 -46.264,-50.755 -70.962,-56.427c-24.534,-5.634 -41.062,-16.833 -36.727,-24.887c10.632,-19.753 381.177,-260.025 401.008,-260.025c24.668,0 18.669,53.584 -20.988,187.464c-73.285,247.41 -163.249,367.117 -288.038,383.268c-53.715,6.952 -72.601,1.53 -98.582,-28.302Zm-593.552,-57.181l0.075,-744.721c0,0 136.63,0.177 185.602,1.74l155.609,4.968l-105.731,61.012c-127.404,73.518 -162.704,124.62 -171.65,248.489c-5.898,81.667 -1.724,99.864 34.133,148.795c25.212,34.405 67.16,64.556 109.569,78.755l68.716,23.008l-187.648,123.701c-30.242,19.936 -88.675,54.253 -88.675,54.253Zm3247.78,-133.785c-52.304,-48.632 -26.033,-75.517 60.859,-62.282c61.889,9.428 77.957,5.497 105.143,-25.719c35.697,-40.99 42.603,-130.735 15.344,-199.43c-9.209,-23.209 -42.59,-58.878 -74.178,-79.264c-107.623,-69.455 -259.104,-35.438 -370.273,83.15l-58.89,62.821l10.392,-52.296c35.891,-180.609 34.746,-178.582 119.057,-210.769c166.465,-63.551 345.071,-21.106 426.401,101.332c77.295,116.362 67.08,307.958 -20.224,379.34c-55.956,45.752 -166.05,47.358 -213.631,3.117Zm-1820.89,9.556c-20.801,-12.084 -40.089,-35.502 -42.862,-52.039c-4.274,-25.483 7.502,-30.068 77.214,-30.068c97.884,-0 132.508,-32.762 132.508,-125.378c-0,-195.288 -276.497,-247.241 -433.189,-81.395l-64.821,68.608l14.097,-72.04c27.125,-138.624 51.605,-184.713 104.567,-196.876c98.864,-22.705 228.103,-11.975 303.324,25.181c129.878,64.155 196.455,232.646 146.344,370.359c-36.006,98.951 -150.345,144.096 -237.182,93.648Zm2546.22,-96.947c21.52,-43.056 22.124,-57.241 4.514,-106.059c-11.181,-30.995 -35.608,-63.025 -54.283,-71.177c-81.407,-35.54 -147.747,47.991 -84.684,106.628c40.294,37.465 40.794,50.583 1.929,50.583c-16.7,0 -44.795,-16.571 -62.435,-36.826c-42.264,-48.53 -30.268,-141.604 27.115,-210.379c91.21,-109.316 348.513,-148.938 593.873,-91.45c200.95,47.082 198.191,52.16 -131.207,241.475c-159.726,91.8 -296.993,166.909 -305.038,166.909c-8.045,-0 -3.448,-22.367 10.216,-49.704Zm-3623.91,-64.584c10.898,-32.914 8.609,-58.206 -8.76,-96.773c-28.776,-63.897 -57.926,-78.442 -106.392,-53.085c-45.093,23.591 -48.524,81.256 -6.623,111.303c40.462,29.015 38.374,48.25 -5.238,48.25c-45.266,0 -85.85,-50.933 -85.85,-107.744c0,-65.285 60.571,-157.76 129.242,-197.316c112.256,-64.663 509.981,-34.753 535.042,40.236c5.036,15.071 2.804,29.839 -4.96,32.818c-7.765,2.979 -106.344,64.113 -219.065,135.852c-112.722,71.739 -213.319,130.566 -223.549,130.726c-13.686,0.215 -14.702,-11.482 -3.847,-44.267Zm4340.03,-329.051c-3.611,-4.145 -64.526,-24.25 -135.367,-44.676c-70.841,-20.426 -139.05,-41.984 -151.574,-47.908c-59.883,-28.322 401.637,-50.761 485.802,-23.62c34.408,11.096 28.377,17.447 -64.561,67.99c-102.021,55.484 -121.789,62.58 -134.3,48.214Zm-2003.23,-9.362c-12.962,-8.712 -90.563,-31.556 -172.447,-50.763c-146.195,-34.294 -173.673,-45.33 -157.915,-63.424c4.341,-4.985 157.483,-6.946 340.314,-4.358c291.425,4.125 326.805,7.563 286.878,27.881c-25.049,12.747 -79.81,42.163 -121.691,65.37c-79.502,44.053 -135.251,52.104 -175.139,25.294Zm-1839.94,-50.354c-64.71,-24.433 -117.655,-50.674 -117.655,-58.313c-0,-7.639 95.642,-13.889 212.539,-13.889c116.896,-0 212.538,3.763 212.538,8.362c0,9.453 -104.993,72.793 -156.126,94.188c-22.8,9.54 -71.554,-0.239 -151.296,-30.348Zm3387.1,-178.307c-8.494,-6.028 10.714,-15.657 42.684,-21.399c31.97,-5.741 119.611,-27.344 194.759,-48.007c217.886,-59.911 210.556,-59.956 333.407,2.037c62.251,31.414 109.534,63.897 105.073,72.186c-9.098,16.903 -651.77,12.323 -675.923,-4.817Zm1034.46,1.96c-0,-9.341 19.48,-28.551 43.29,-42.689c56.444,-33.516 133.036,-134.556 161.69,-213.3c46.526,-127.861 17.218,-309.327 -63.493,-393.136c-81.334,-84.455 -225.977,-105.928 -334.043,-49.59c-104.555,54.507 -144.167,190.193 -76.913,263.454c29.172,31.777 46.9,35.934 121.445,28.48c100.488,-10.048 125.291,11.757 70.901,62.329c-29.079,27.038 -52.994,32.275 -118.777,26.011c-71.148,-6.775 -89.263,-16.484 -133,-71.285c-43.675,-54.723 -50.634,-75.772 -50.634,-153.158c0,-184.165 113.265,-285.613 318.808,-285.549c105.264,0.033 157.139,2.013 242.902,54.007c19.758,11.979 65.782,39.248 65.782,39.248l-0.158,735.436c0,0 -247.8,13.193 -247.8,-0.258Zm-2611.19,0.099c-219.669,-6.538 -293.354,-13.475 -250.492,-23.584c33.399,-7.876 129.041,-34.233 212.539,-58.569c83.497,-24.336 162.06,-44.211 174.585,-44.166c12.524,0.044 76.661,25.918 142.525,57.496c93.275,44.72 113.415,60.272 91.088,70.336c-15.766,7.107 -35.497,11.759 -43.847,10.336c-8.349,-1.422 -155.229,-6.754 -326.398,-11.849Zm-979.196,0.841l-136.632,-10.103l72.181,-52.296c39.699,-28.763 94.121,-87.319 120.938,-130.124c99.407,-158.673 67.297,-399.67 -66.831,-501.59c-79.332,-60.283 -197.096,-71.851 -268.798,-26.403c-67.307,42.661 -116.248,138.546 -102.596,201.004c12.882,58.933 87.484,105.906 145.117,91.371c52.639,-13.276 91.374,28.806 62.846,68.277c-49.539,68.539 -185.492,44.167 -250.805,-44.961c-29.902,-40.805 -38.45,-71.805 -38.45,-139.439c-0,-99.383 16.61,-142.922 80.851,-211.932c69.196,-74.331 98.992,-86.93 208.317,-88.079c87.836,-0.924 115.074,7.427 213.189,65.362c155.058,91.558 302.253,186.434 302.253,194.819c-0,3.84 -22.764,17.903 -50.586,31.252c-76.671,36.784 -116.409,105.629 -116.409,201.676c0,139.623 97.748,268.095 231.516,304.284c82.76,22.39 40.572,45.497 -83.498,45.733c-68.885,0.131 -138.909,2.716 -155.608,5.745c-16.7,3.029 -91.847,0.96 -166.995,-4.596Zm-1677.01,-0.854l-0.058,-734.205c-0,0 142.156,79.803 181.708,108.087l53.135,37.996l-64.311,31.497c-193.585,94.81 -151.358,371.859 75.394,494.657c39.494,21.388 67.39,43.961 61.99,50.161c-5.4,6.201 -307.858,11.807 -307.858,11.807Zm3369.73,-7.593c0,-3.883 29.806,-27.116 66.234,-51.63c139.819,-94.087 199.887,-220.289 188.778,-396.624c-7.728,-122.687 -40.02,-180.466 -134.906,-241.382c-121.964,-78.3 -309.506,-50.231 -356.132,53.3c-56.304,125.021 2.41,235.18 122.158,229.196c75.331,-3.765 95.264,14.703 59.812,55.412c-60.168,69.088 -189.534,46.957 -256.042,-43.801c-81.367,-111.036 -29.761,-320.658 97.56,-396.281c59.527,-35.357 84.084,-39.555 190.88,-32.628c117.132,7.598 132.088,13.646 337.462,136.454c118.195,70.676 215.044,134.386 215.221,141.577c0.177,7.191 -18.653,13.074 -41.844,13.074c-127.202,0 -201.102,208.535 -121.294,342.275c36.801,61.669 106.012,111.772 201.413,145.803c33.399,11.914 67.216,28.559 75.148,36.988c8.329,8.852 -124.751,15.327 -315.013,15.327c-181.189,-0 -329.435,-3.177 -329.435,-7.06Zm-2665.22,-19.643c16.208,-14.076 44.429,-25.593 62.713,-25.593c18.285,-0 77.062,-18.938 130.616,-42.085l97.372,-42.084l105.588,52.764c58.074,29.02 112.079,59.725 120.011,68.232c8.43,9.042 -101.955,15.238 -265.673,14.914c-249.601,-0.494 -276.887,-3.34 -250.627,-26.148Zm547.422,-104.54c-33.399,-13.816 -62.193,-25.239 -63.987,-25.383c-11.108,-0.894 -32.767,-72.745 -42.119,-139.719l-10.952,-78.444l50.995,55.913c90.419,99.139 253.512,139.006 345.417,84.434c81.449,-48.363 114.714,-155.384 75.134,-241.727c-25.108,-54.773 -42.191,-63.658 -122.973,-63.957c-51.017,-0.189 -72.111,-7.292 -72.111,-24.281c-0,-54.586 81.027,-85.771 158.795,-61.114c144.518,45.818 184.442,279.316 72.141,421.911c-74.713,94.868 -255.103,128.311 -390.34,72.367Zm3695.49,-0.358c-81.897,-28.973 -108.753,-60.924 -132.849,-158.05c-27.965,-112.721 -22.145,-117.077 46.72,-34.969c71.896,85.723 139.953,115.185 266.427,115.338c88.845,0.108 155.721,-31.553 191.887,-90.842c32.685,-53.583 30.493,-158.071 -4.069,-193.987c-29.043,-30.18 -110.122,-36.36 -162.004,-12.347c-17.153,7.939 -38.48,6.609 -49.021,-3.056c-30.37,-27.848 4.812,-79.553 67.697,-99.491c129.629,-41.098 247.044,56.398 246.94,205.048c-0.07,100.352 -37.508,175.289 -123.169,246.541c-57.02,47.429 -74.514,52.7 -171.293,51.609c-59.282,-0.667 -139.052,-12.275 -177.266,-25.794Zm567.949,-806.922l0.575,71.748c0,-0 -101.039,-41.839 -144.194,-51.344c-63.158,-13.912 -293.373,-33.139 -416.641,55.264c-68.212,48.918 -92.061,80.919 -122.052,156.139c-20.618,51.714 -42.789,127.942 -49.267,169.396l-11.78,75.371l-55.759,-125.545c-87.025,-195.938 -95.321,-231.765 -271.492,-305.847c-44.467,-18.699 -122.306,-19.225 -187.623,16.39c-76.476,41.7 -122.143,168.129 -76.042,288.62c6.419,16.778 5.817,30.019 -1.339,29.424c-7.155,-0.595 -159.87,-82.954 -339.366,-183.02c-179.496,-100.066 -306.752,-170.695 -342.779,-182.691c-43.018,-14.323 -140.336,-20.31 -199.44,-15.955c-106.173,7.825 -163.408,35.397 -181.056,43.791c-64.073,30.475 -138.175,141.902 -159.459,214.621c-10.193,34.828 -18.998,103.809 -19.566,153.291c-1.972,171.943 132.228,318.829 291.814,319.399c109.653,0.391 187.144,-47.054 222.059,-135.959c48.671,-123.934 -10.832,-206.774 -136.811,-190.469c-53.165,6.881 -71.223,2.781 -78.076,-17.724c-24.442,-73.138 170.102,-104.965 242.408,-39.657c52.719,47.617 77.964,126.793 67.9,212.953c-9.655,82.653 -41.401,137.763 -123.108,213.714c-52.329,48.642 -68.178,53.644 -181.193,57.183c-69.534,2.177 -145.272,-5.468 -172.699,-17.432c-74.433,-32.47 -95.258,-66.47 -120.9,-197.385c-33.898,-173.066 -126.11,-384.464 -207.391,-475.446c-163.82,-183.374 -385.074,-165.762 -437.41,34.818c-14.529,55.683 -12.548,75.614 13.532,136.142c16.804,38.999 27.118,70.908 22.92,70.908c-4.198,-0 -87.028,-48.324 -184.066,-107.387c-342.877,-208.693 -427.973,-248.918 -451.154,-258.685c-8.452,-3.561 -76.385,-16.904 -103.053,-17.761c-59.579,-1.913 -148.27,-5.234 -199.999,2.093c-22.265,3.154 -88.007,27.892 -110.374,41.87c-85.285,53.3 -162.352,183.111 -178.49,300.648c-5.594,40.747 -14.422,74.067 -19.617,74.045c-5.195,-0.023 -29.843,-45.128 -54.773,-100.235c-94.679,-209.284 -225.225,-316.188 -360.65,-295.335c-107.235,16.512 -188.185,151.956 -152.327,254.871c8.598,24.675 20.619,58.592 26.714,75.37c6.906,19.01 4.331,30.506 -6.834,30.506c-9.855,-0 -142.094,-73.657 -293.865,-163.682c-91.597,-54.332 -252.613,-142.527 -252.613,-142.527l-0.033,-71.345l-0,-43.952l5515.37,-0.512l0,41.32Zm-1590.52,789.995c-75.531,-33.118 -113.602,-72.004 -139.635,-142.625c-35.231,-95.574 21.151,-189.989 105.253,-176.248c40.727,6.653 44.465,52.556 4.823,59.236c-45.609,7.687 -59.815,33.936 -40.636,75.085c22.12,47.461 82.381,47.734 123.464,0.561c25.655,-29.458 29.635,-48.879 21.438,-104.593c-8.128,-55.238 -5.517,-68.417 13.552,-68.417c38.176,0 480.834,267.397 475.258,287.09c-20.088,70.948 -441.824,123.27 -563.517,69.911Zm-3608.96,10.696c-113.043,-42.529 -185.859,-130.802 -185.859,-225.314c-0,-68.116 52.14,-129.978 102.336,-121.419c43.216,7.37 46.481,37.418 6.267,57.676c-22.372,11.27 -34.215,32.32 -34.215,60.816c0,37.645 7.629,44.309 56.015,48.928c72.778,6.948 112.011,-51.702 96.813,-144.727c-5.49,-33.599 -5.114,-61.089 0.834,-61.089c18.548,0 452.401,263.503 475.263,288.654c25.513,28.067 27.614,26.848 -119.489,69.313c-115.492,33.34 -340.688,48.71 -397.965,27.162Zm1786.74,-8.618c-97.318,-31.478 -175.13,-123.872 -175.13,-207.949c0,-88.33 58.116,-136.389 127.8,-105.685c37.198,16.391 28.407,38.817 -17.606,44.915c-73.939,9.8 -57.1,118.824 18.353,118.824c53.855,0 91.79,-62.458 90.159,-148.44c-1.182,-62.327 2.675,-73.032 22.772,-63.196c133.334,65.257 456.863,269.421 456.863,288.305c0,60.259 -393.179,115.286 -523.211,73.226Zm524.999,-240.354l-203.16,-124.051l43.756,-25.353c85.673,-49.642 107.047,-129.34 50.458,-188.145c-40.594,-42.184 -83.875,-14.335 -79.75,51.315c3.847,61.225 -37.013,60.216 -50.448,-1.245c-25.129,-114.97 83.018,-192.639 190.64,-136.913c106.745,55.271 181.34,172.257 250.776,393.287c35.842,114.094 39.01,157.469 11.378,155.792c-5.769,-0.35 -101.912,-56.459 -213.65,-124.687Zm1860.88,10.174c-170.043,-97.681 -222.08,-146.331 -156.519,-146.331c29.307,0 85.248,-76.179 85.248,-116.088c0,-45.354 -50.271,-97.936 -86.163,-90.123c-18.853,4.103 -29.238,24.41 -32.523,63.598c-6.376,76.066 -39.309,63.002 -45.326,-17.981c-3.719,-50.057 3.266,-69.136 36.205,-98.887c53.273,-48.117 103.128,-46.567 180.674,5.615c76.624,51.562 129.289,135.813 198.21,317.091c55.319,145.501 64.519,199.352 33.573,196.517c-10.437,-0.956 -106.458,-51.991 -213.379,-113.411Zm-3540.2,70.314c-33.399,-24.322 -120.777,-79.333 -194.174,-122.246c-123.392,-72.143 -154.671,-111.831 -88.137,-111.831c63.691,0 105.534,-123.056 62.221,-182.983c-41.789,-57.817 -118.199,-9.52 -98.379,62.185c7.596,27.481 4.838,35.648 -10.132,29.995c-11.313,-4.272 -22.651,-35.833 -25.195,-70.134c-5.912,-79.704 37.132,-117.975 132.687,-117.975c62.975,-0 74.214,7.338 147.471,96.292c59.016,71.66 91.242,131.845 125.98,235.277c76.167,226.792 64.672,266.635 -52.342,181.42Z" style="fill-rule:nonzero;"/></svg>