<?xml version="1.0" encoding="UTF-8" standalone="no"?><!DOCTYPE svg PUBLIC "-//W3C//DTD SVG 1.1//EN" "http://www.w3.org/Graphics/SVG/1.1/DTD/svg11.dtd"><svg width="100%" height="100%" viewBox="0 0 721 489" version="1.1" xmlns="http://www.w3.org/2000/svg" xmlns:xlink="http://www.w3.org/1999/xlink" xml:space="preserve" style="fill-rule:evenodd;clip-rule:evenodd;stroke-linecap:round;stroke-linejoin:round;stroke-miterlimit:1.5;"><g id="feathers"><g><path d="M108.324,93.154c0,0 -31.831,28.839 -27.463,30.618c4.368,1.78 42.067,-13.217 41.134,-4.894c-0.852,7.602 1.121,55.183 15.006,71.186c1.792,2.066 -39.883,-15.948 -43.197,-17.109c-5.48,-1.919 22.635,15.535 48.225,35.078c17.305,13.215 14.206,35.828 12.89,39.911c-1.335,4.14 -21.375,0.217 -33.167,1.255c-12.789,1.126 74.453,22.947 90.763,41.296c0.529,0.595 -19.704,-0.464 -18.322,-0.229c14.426,2.453 75.826,61.083 59.434,61.366c-16.807,0.291 -35.596,6.091 -30.353,6.288c31.896,1.197 96.401,30.22 95.495,50.858c-0.089,2.018 -17.127,1.663 -13.337,3.065c14.76,5.461 21.798,7.641 22.315,11.277c0.822,5.767 2.918,33.215 -5.539,33.32c-13.439,0.167 -50.756,-14.344 -55.454,-14.593c-8.473,-0.45 47.629,24.989 49.507,23.863c-20.579,10.348 -50.87,-1.756 -71.389,-12.579c-11.882,-6.267 10.317,18.329 32.843,32.519c7.238,4.56 -62.538,-12.991 -94.969,-60.184c-2.772,-4.034 4.922,22.603 26.371,53.812c2.897,4.214 -24.683,-6.153 -37.211,-33.328c-2.753,-5.974 1.401,17.749 0.607,17.553c-16.068,-3.956 -25.516,-40.934 -32.155,-50.72c-4.381,-6.456 2.235,36.293 2.103,36.362c-5.338,2.784 -58.833,-31.447 -56.787,-95.293c0.235,-7.329 -6.471,31.345 -5.177,34.904c1.294,3.56 -39.153,-41.741 -38.991,-46.433c0.162,-4.691 15.532,-36.725 18.929,-42.873c2.846,-5.149 -20.87,40.608 -21.679,38.829c-0.809,-1.78 -21.194,-41.094 -21.68,-45.948c-0.485,-4.853 28.798,-34.137 28.798,-34.137l-33.004,25.401c-0,-0 -3.357,-13.873 -0.809,-22.044c4.516,-14.478 18.282,-27.301 18.282,-27.301c-0,-0 -10.901,5.192 -21.751,14.003c-5.686,4.617 26.605,-30.991 29.517,-35.035c2.912,-4.045 -33.652,30.011 -33.328,22.731c0.323,-7.281 -2.104,-32.439 -0.162,-34.865c1.941,-2.427 20.709,-15.047 24.591,-17.15c3.883,-2.103 -20.708,6.431 -26.613,10.435c-4.555,3.089 25.319,-30.658 26.937,-32.923c1.618,-2.265 -25.059,20.718 -23.54,11.284c6.543,-40.643 53.794,-42.833 42.186,-45.583c-9.224,-2.185 -36.119,-3.397 -38.869,-9.384c-2.751,-5.986 53.389,11.188 99.013,-24.609Z" style="fill:#e6e6e6;stroke:#000;stroke-width:4.25px;"/><g><path d="M93.892,284.546c-12.246,18.113 -23.22,47.996 -22.588,55.289c-2.374,-6.935 13.48,-54.482 15.144,-61.41c0.23,-0.959 9.148,3.601 7.444,6.121Z" style="stroke:#000;stroke-width:2.08px;"/><path d="M73.331,238.037c-15.109,3.181 -34.682,13.89 -37.538,18.464c1.688,-5.398 31.897,-23.389 35.924,-26.394c0.557,-0.416 3.716,7.487 1.614,7.93Z" style="stroke:#000;stroke-width:2.08px;"/><path d="M167.692,368.229c-13.943,7.657 -6.451,30.982 -5.852,35.674c-4.911,-5.556 -9.134,-35.368 -5.309,-41.025c0.434,-0.641 15.216,3.124 11.161,5.351Z" style="stroke:#000;stroke-width:2.08px;"/><path d="M137.031,337.659c-10.264,19.305 -18.021,50.18 -16.622,57.366c-3.093,-6.646 7.651,-55.601 8.573,-62.667c0.128,-0.978 9.477,2.615 8.049,5.301Z" style="stroke:#000;stroke-width:2.08px;"/><path d="M232.98,320.094c-12.258,-2.479 -60.183,-2.528 -63.897,-0.603c3.143,-2.762 54.796,-4.816 58.821,-5.455c0.558,-0.089 6.781,6.403 5.076,6.058Z" style="stroke:#000;stroke-width:2.08px;"/><path d="M244.523,330.488c-9.438,2.02 -25.602,2.673 -28.127,2.542c2.656,1.147 27.895,0.983 30.981,2.332c0.376,0.164 -1.558,-5.152 -2.854,-4.874Z" style="stroke:#000;stroke-width:2.08px;"/><path d="M309.13,393.662c-21.59,-0.602 -52.959,-5.842 -59.09,-8.644c5.013,3.48 57.717,13.734 64.584,15.354c0.95,0.224 -2.489,-6.627 -5.494,-6.71Z" style="stroke:#000;stroke-width:2.08px;"/><path d="M199.211,394.144c-8.878,7.538 6.831,35.086 11.358,45.29c-3.878,-5.467 -22.818,-40.677 -19.407,-50.591c0.329,-0.957 9.545,4.03 8.049,5.301Z" style="stroke:#000;stroke-width:2.08px;"/><path d="M189.11,384.473c14.185,-0.444 32.888,0.204 42.557,0.856c-6.185,-4.434 -47.102,-2.831 -50.503,-6.528c-0.393,-0.427 5.998,5.733 7.946,5.672Z" style="stroke:#000;stroke-width:2.08px;"/><path d="M327.761,440.681c-17.769,-13.931 -57.322,-27.278 -65.056,-24.962c6.841,-2.634 58.958,13.771 65.944,15.171c0.967,0.194 1.405,11.588 -0.888,9.791Z" style="stroke:#000;stroke-width:2.08px;"/><path d="M121.73,318.365c19.384,6.469 49.062,10.6 55.48,9.262c-5.661,2.529 -52.48,-2.906 -59.14,-3.239c-0.922,-0.046 0.963,-6.924 3.66,-6.023Z" style="stroke:#000;stroke-width:2.08px;"/><path d="M181.401,273.81c-8.426,8.88 -59.706,-6.14 -63.342,-9.97c1.842,4.688 46.158,20.121 71.543,13.311c0.458,-0.122 -7.362,-4.225 -8.201,-3.341Z" style="stroke:#000;stroke-width:2.08px;"/><path d="M147.462,215.646c-10.426,6.137 -51.677,-24.297 -53.713,-29.169c0.149,5.164 35.009,33.873 60.008,34.958c0.451,0.02 -5.257,-6.4 -6.295,-5.789Z" style="stroke:#000;stroke-width:2.08px;"/><path d="M87.346,267.178c16.075,1.5 37.806,10.091 41.39,14.382c-2.488,-5.256 -36.229,-19.989 -40.81,-22.565c-0.634,-0.356 -2.817,7.975 -0.58,8.183Z" style="stroke:#000;stroke-width:2.08px;"/><path d="M124.112,154.297c-8.581,-0.603 -20.363,-4.727 -22.386,-6.856c1.468,2.626 19.8,9.732 22.305,10.987c0.346,0.173 1.276,-4.047 0.081,-4.131Z" style="stroke:#000;stroke-width:2.08px;"/><path d="M66.465,196.068c17.485,3.22 41.394,13.353 45.457,17.555c-2.915,-4.922 -40.096,-21.884 -45.167,-24.693c-0.702,-0.389 -2.723,6.69 -0.29,7.138Z" style="stroke:#000;stroke-width:2.08px;"/><path d="M64.051,191.661c-9.339,2.383 -20.173,10.659 -21.177,14.237c0.076,-4.237 16.519,-18.161 18.594,-20.494c0.287,-0.323 3.882,5.925 2.583,6.257Z" style="stroke:#000;stroke-width:2.08px;"/><path d="M66.797,147.597c13.993,4.452 32.473,15.313 35.33,19.225c-1.832,-4.396 -30.432,-22.288 -34.277,-25.142c-0.532,-0.395 -3,5.297 -1.053,5.917Z" style="stroke:#000;stroke-width:2.08px;"/><path d="M68.632,133.346c10.269,-1.151 24.808,1.929 27.494,4.467c-2.093,-3.37 -24.807,-9.138 -27.948,-10.327c-0.435,-0.165 -0.974,6.02 0.454,5.86Z" style="stroke:#000;stroke-width:2.08px;"/><path d="M62.675,149.621c-10.758,2.317 -24.805,9.842 -26.905,13.008c1.286,-3.722 22.992,-16.34 25.895,-18.438c0.402,-0.291 2.507,5.108 1.01,5.43Z" style="stroke:#000;stroke-width:2.08px;"/></g><path d="M87.456,34.69c1.672,-0.328 -44.28,102.635 -6.171,207.098c32.521,89.149 120.315,154.835 159.692,181.293c20.549,13.809 -150.103,-80.9 -172.036,-190.126c-24.893,-123.967 16.844,-197.937 18.515,-198.265Z" style="fill:#fff;stroke:#000;stroke-width:4.25px;"/></g><g><path d="M662.917,396.552c-16.104,-3.391 -49.552,-20.78 -62.339,-30.371c-12.788,-9.59 22.378,23.977 45.555,34.367c23.177,10.39 -10.39,7.992 -28.772,10.39c-10.573,1.379 -75.126,-47.154 -89.512,-63.139c-14.386,-15.984 46.354,48.753 55.945,55.946c9.591,7.193 -67.344,0.666 -75.926,-4.796c-17.583,-11.189 -69.532,-78.323 -77.524,-98.304c-5.351,-13.377 19.389,59.653 28.18,69.243c8.792,9.591 -67.866,-24.957 -74.824,-34.285c-4.244,-5.689 -9.159,-34.927 -10.9,-46.147c-0.645,-4.159 -9.401,23.763 -10.376,37.798c-0.229,3.301 -83.22,-36.685 -85.53,-53.782c-2.551,-18.879 0.465,-46.337 1.598,-53.548c1.962,-12.483 -23.881,30.976 -28.483,29.309c-9.798,-3.548 -58.299,-50.607 -59.155,-60.961c-1.834,-22.175 10.114,-65.852 5.319,-58.66c-4.796,7.193 -19.937,42.936 -19.648,39.312c0.932,-11.722 5.412,-39.692 23.492,-57.068c11.09,-10.659 29.114,-15.348 46.517,-18.616c1.565,-0.294 -23.792,11.804 -30.225,19.503c-4.616,5.524 46.199,-17.497 58.986,-14.3c12.788,3.197 36.917,16.081 40.792,20.195c1.744,1.851 -23.268,9.612 -23.268,9.612c0,-0 1.684,1.252 16.869,-1.145c15.185,-2.398 72.993,37.065 81.778,43.448c4.838,3.514 -27.518,10.246 -32.105,12.646c-3.221,1.684 84.381,5.944 87.728,16.287c1.458,4.508 -28.509,26.607 -33.304,32.202c-4.795,5.594 35.184,-8.918 45.253,-14.542c3.184,-1.778 59.957,30.101 105.326,25.693c20.205,-1.964 -33.986,23.114 -38.386,31.758c-1.45,2.849 56.963,-19.127 66.988,-22.518c12.892,-4.361 53.113,13.463 58.04,18.576c8.942,9.28 -42.383,20.787 -41.451,24.838c0.72,3.127 55.891,-10.491 65.73,-7.674c8.761,2.508 12.935,17.047 21.525,28.431c4.333,5.741 -53.075,1.179 -54.673,-1.219c-1.598,-2.397 22.677,23.821 74.89,9.854c7.933,-2.122 -23.74,78.06 -54.11,71.667Z" style="fill:#e6e6e6;stroke:#000;stroke-width:4.17px;"/><g><path d="M440.328,280.3c19.777,-7.591 65.85,-40.732 65.85,-40.732c-0,-0 -62.154,42.44 -72.818,38.586c-0.694,-0.25 4.302,3.169 6.968,2.146Z" style="stroke:#000;stroke-width:2.08px;"/><path d="M503.259,234.391c-0.508,0.908 -33.177,20.693 -33.177,20.693c-0,0 30.873,-17.949 29.931,-21.836c-0.397,-1.636 3.723,0.289 3.246,1.143Z" style="stroke:#000;stroke-width:2.08px;"/><path d="M519.343,238.685c-0.366,0.698 -24.76,15.438 -24.76,15.438c0,0 23.069,-13.344 22.268,-16.402c-0.337,-1.286 2.836,0.308 2.492,0.964Z" style="stroke:#000;stroke-width:2.08px;"/><path d="M518.46,317.41c12.083,-3.105 38.782,-19.733 38.782,-19.733c0,-0 -40.156,16.984 -43.933,16.528c-0.484,-0.059 3.522,3.624 5.151,3.205Z" style="stroke:#000;stroke-width:2.08px;"/><path d="M627.51,259.585c3.486,0.852 -8.62,-3.496 -8.62,-3.496c0,0 -61.107,27.198 -75.36,34.86c-0.429,0.231 74.551,-33.667 83.98,-31.364Z" style="stroke:#000;stroke-width:2.08px;"/><path d="M679.935,294.733c-12.476,-0.069 -66.88,12.63 -66.88,12.63c0,0 68.905,-11.554 72.442,-10.152c0.453,0.18 -3.88,-2.469 -5.562,-2.478Z" style="stroke:#000;stroke-width:2.08px;"/><path d="M600.3,343.958c11.513,-4.624 58.686,-7.735 58.686,-7.735c-0,-0 -52.986,6.14 -55.729,8.624c-0.351,0.318 -4.509,-0.266 -2.957,-0.889Z" style="stroke:#000;stroke-width:2.08px;"/><path d="M622.726,409.623c-7.023,-2.907 -33.307,-23.524 -33.307,-23.524c-0.45,0.299 31.255,21.521 41.328,22.44c0.491,0.044 -6.475,1.724 -8.021,1.084Z" style="stroke:#000;stroke-width:2.08px;"/><path d="M527.623,404.108c-10.159,-7.457 -27.445,-28.528 -26.225,-29.206c-0.903,1.053 27.367,28.752 31.494,29.124c0.387,0.035 -4.031,0.991 -5.269,0.082Z" style="stroke:#000;stroke-width:2.08px;"/><path d="M466.337,302.252c1.805,11.051 36.865,64.578 38.348,64.578c-0.414,0.208 -53.201,-70.154 -48.777,-69.725c1.451,0.141 10.166,3.535 10.429,5.147Z" style="stroke:#000;stroke-width:2.08px;"/><path d="M427.773,359.815c-4.915,-11.391 -8.821,-42.599 -8.821,-42.599c-0,-0 11.588,41.977 14.141,44.656c0.326,0.343 -4.657,-0.521 -5.32,-2.057Z" style="stroke:#000;stroke-width:2.08px;"/><path d="M383.048,256.629c-1.03,12.45 6.084,43.089 6.084,43.089c-0,0 -2.985,-43.511 -1.291,-46.945c0.217,-0.44 -4.654,2.177 -4.793,3.856Z" style="stroke:#000;stroke-width:2.08px;"/><path d="M343.837,318.461c-4.438,-11.585 -3.648,-54.013 -3.648,-54.013c0,-0 6.438,53.507 8.877,56.289c0.313,0.357 -4.631,-0.713 -5.229,-2.276Z" style="stroke:#000;stroke-width:2.08px;"/><path d="M334.278,228.375c-5.221,3.674 -5.028,52.4 -5.028,52.4c-1.269,-0.565 -0.455,-26.996 -0.164,-44.163c0.142,-8.384 0.159,-14.558 -0.252,-14.43c-2.385,0.742 6.969,5.12 5.444,6.193Z" style="stroke:#000;stroke-width:2.08px;"/><path d="M326.302,222.52c-5.307,2.153 -6.349,28.942 -6.349,28.942c-1.253,-0.278 0.23,-14.834 0.956,-24.281c0.354,-4.614 0.528,-8.01 0.114,-7.929c-2.401,0.469 6.829,2.639 5.279,3.268Z" style="stroke:#000;stroke-width:2.08px;"/><path d="M290.447,289.004c-1.972,-12.249 4.037,-40.065 4.037,-40.065c0,0 -1.202,40.141 0.616,43.363c0.233,0.413 -4.387,-1.646 -4.653,-3.298Z" style="stroke:#000;stroke-width:2.08px;"/><path d="M270.775,182.078c-8.726,8.449 -17.518,23.688 -17.653,27.873c-0.948,-4.23 12.065,-28.702 13.568,-32.359c0.208,-0.507 5.3,3.311 4.085,4.486Z" style="stroke:#000;stroke-width:2.08px;"/><path d="M221.156,224.622c-1.19,-12.35 11.983,-47.008 11.983,-47.008c0,-0 -9.159,47.263 -7.55,50.595c0.206,0.427 -4.273,-1.922 -4.433,-3.587Z" style="stroke:#000;stroke-width:2.08px;"/><path d="M206.141,210.508c-0.114,-8.407 8.797,-26.391 8.797,-26.391c-0,0 -5.875,27.535 -4.501,30.25c0.176,0.348 -4.281,-2.725 -4.296,-3.859Z" style="stroke:#000;stroke-width:2.08px;"/><path d="M208.833,128.907c-4.309,11.567 -7.338,42.87 -7.338,42.87c0,0 9.89,-42.36 12.186,-45.136c0.294,-0.356 -4.266,0.707 -4.848,2.266Z" style="stroke:#000;stroke-width:2.08px;"/><path d="M308.547,114.163c-7.783,3.859 -35.197,4.879 -34.84,5.592c-0,-0 27.935,-7.05 29.425,-9.614c0.19,-0.328 6.478,3.495 5.415,4.022Z" style="stroke:#000;stroke-width:2.08px;"/><path d="M223.724,124.839c11.617,-3.891 42.914,-7.113 42.914,-7.113c-0,-0 -42.449,9.261 -45.258,11.263c-0.36,0.256 0.777,-3.625 2.344,-4.15Z" style="stroke:#000;stroke-width:2.08px;"/><path d="M235.951,153.723c-3.455,4.859 -10.009,16.131 -9.021,17.119c-1.229,0 5.378,-19.112 6.621,-21.657c0.123,-0.251 2.89,3.849 2.4,4.538Z" style="stroke:#000;stroke-width:2.08px;"/><path d="M709.427,348.333c-12.237,1.613 -31.241,-3.708 -31.241,-3.708c0,0 27.88,4.973 34.531,-0.503c0.356,-0.293 -1.641,3.993 -3.29,4.211Z" style="stroke:#000;stroke-width:2.08px;"/><path d="M703.054,366.162c-11.965,2.746 -41.696,0.434 -41.696,0.434c0,-0 39.234,-1.636 42.243,-3.418c0.385,-0.228 1.066,2.614 -0.547,2.984Z" style="stroke:#000;stroke-width:2.08px;"/><path d="M546.761,333.277c7.117,11.966 26.626,30.821 27.171,30.004c-0,0 -24.409,-24.715 -18.383,-28.123c0.971,-0.55 -9.618,-3.278 -8.788,-1.881Z" style="stroke:#000;stroke-width:2.08px;"/><path d="M428.625,194.004c-6.572,2.85 -25.513,15.828 -25.513,15.828c-0,0 32.06,-14.289 36.285,-13.848c3.105,0.324 -9.172,-2.674 -10.772,-1.98Z" style="stroke:#000;stroke-width:2.08px;"/><path d="M401.875,189.092c-7.129,0.709 -37.588,13.599 -37.588,13.599c0,-0 44.015,-14.122 47.904,-12.413c2.859,1.257 -8.58,-1.358 -10.316,-1.186Z" style="stroke:#000;stroke-width:2.08px;"/><path d="M358.102,149.667c-7.111,0.09 -39.812,8.472 -39.812,8.472c-0,-0 46.195,-8.459 49.582,-6.808c2.49,1.214 -8.039,-1.686 -9.77,-1.664Z" style="stroke:#000;stroke-width:2.08px;"/><path d="M248.636,149.985c11.949,-4.092 48.754,-4.735 48.754,-4.735c0,-0 -35.497,3.774 -40.265,8.838c-3.505,3.724 -11.398,-3.106 -8.489,-4.103Z" style="stroke:#000;stroke-width:2.08px;"/><path d="M278.283,172.235c12.14,-5.388 49.224,-6.034 49.224,-6.034c0,-0 -36.065,4.969 -40.909,11.638c-3.561,4.902 -11.271,-4.292 -8.315,-5.604Z" style="stroke:#000;stroke-width:2.08px;"/><path d="M337.89,218.416c6.643,-3.363 26.936,-3.766 26.936,-3.766c0,-0 -19.735,3.102 -22.386,7.264c-1.948,3.06 -6.167,-2.679 -4.55,-3.498Z" style="stroke:#000;stroke-width:2.08px;"/><path d="M413.915,267.966c12.083,-3.105 38.782,-19.733 38.782,-19.733c-0,-0 -40.156,16.984 -43.933,16.528c-0.484,-0.059 3.521,3.623 5.151,3.205Z" style="stroke:#000;stroke-width:2.08px;"/><path d="M413.915,267.966c12.083,-3.105 38.782,-19.733 38.782,-19.733c-0,-0 -40.156,16.984 -43.933,16.528c-0.484,-0.059 3.521,3.623 5.151,3.205Z" style="stroke:#000;stroke-width:2.08px;"/></g><path d="M113.853,2.537c-6.477,-8.831 70.331,126.276 204.6,214.19c122.261,80.052 192.612,113.49 290.916,129.474c119.376,19.411 -241.183,3.074 -495.516,-343.664Z" style="fill:#fff;stroke:#000;stroke-width:4.25px;"/></g></g></svg>